<?xml version="1.0" encoding="UTF-8"?>
<svg version="1.1" xmlns="http://www.w3.org/2000/svg" width="512" height="512">
<path d="M0 0 C0.69899414 0.5576001 1.39798828 1.1152002 2.11816406 1.68969727 C3.96189809 3.27137107 3.96189809 3.27137107 6.49609375 2.78515625 C8.73058997 2.08447959 10.87977523 1.28203089 13.0625 0.4375 C24.2832908 -2.96070051 37.88774716 -2.45852591 48.58984375 2.22265625 C51.55319568 3.1784213 53.05672932 2.96861213 56 2 C58.21137565 0.69820427 58.21137565 0.69820427 60.375 -1 C81.35026748 -16.15393774 104.95819209 -26.74888045 129 -36 C130.20438721 -36.47687256 130.20438721 -36.47687256 131.43310547 -36.96337891 C148.26402328 -43.59444347 162.65842346 -41.16121591 179.25 -34.6875 C202.4714441 -24.41170054 216.92742205 -5.6243233 226.38671875 17.37109375 C228.90611748 24.31049024 230.76865584 30.53497827 227.96484375 37.61328125 C220.43917676 52.43402377 208.54840946 64.01012512 193.8125 71.5 C193.17175537 71.82637451 192.53101074 72.15274902 191.87084961 72.48901367 C187.05385262 74.79765734 182.24129382 76.02712402 177 77 C177.35715088 77.45737549 177.71430176 77.91475098 178.08227539 78.38598633 C179.74738006 80.52430586 181.40601812 82.6674933 183.0625 84.8125 C183.66304199 85.58916016 184.26358398 86.36582031 184.88232422 87.16601562 C188.06440091 91.32367614 190.99207121 95.46515214 193.625 100 C196.70480756 105.05423865 200.57385981 108.17340147 205.2265625 111.76171875 C213.16690846 118.16991345 218.95927222 126.20605563 224 135 C224.78697266 136.36898437 224.78697266 136.36898437 225.58984375 137.765625 C232.82808465 151.24753935 235.14494509 164.0153025 236.3125 179.125 C237.13819287 189.47694189 238.41283342 197.02150044 244 205.76171875 C246.20893151 209.3382895 247.58231315 212.7730042 248.875 216.75 C249.24367188 217.87921875 249.61234375 219.0084375 249.9921875 220.171875 C252.33882875 229.08547355 253.36015633 237.59919148 253.3125 246.8125 C253.31056641 248.38028198 253.31056641 248.38028198 253.30859375 249.97973633 C253.22091644 257.05693932 252.51631895 263.44688163 250.65625 270.29296875 C249.99528585 273.01944585 249.71811843 275.20985018 250 278 C251.61974559 279.71230248 253.2958946 281.37163262 255 283 C261.35262889 291.79865497 262.02742955 300.35954611 261 311 C260.13409382 314.37891653 258.85403833 317.06037344 257 320 C256.649375 320.62132812 256.29875 321.24265625 255.9375 321.8828125 C251.76207617 328.58088823 244.65139273 333.22060634 237 335 C235.68 335 234.36 335 233 335 C232.690625 336.8253125 232.690625 336.8253125 232.375 338.6875 C227.66731819 359.77261006 211.83017669 379.93508846 193.88964844 391.44262695 C190.2171374 393.72398744 186.94715581 395.75498724 182.73828125 396.84375 C179.72598628 397.7408063 179.72598628 397.7408063 178.81640625 400.80078125 C178.41228516 402.38439453 178.41228516 402.38439453 178 404 C173.34159735 412.60707637 167.18422363 421.47409048 159.78515625 427.93359375 C157.42957355 430.6602967 157.40809648 432.56484724 157.125 436.125 C155.95341106 445.057114 152.57825567 451.18515205 145.625 456.9375 C136.50555794 463.32864617 127.92345389 463.98908886 117 463 C112.22513796 461.81990102 108.38402479 460.31298635 104.79296875 456.90625 C100.88367008 454.23808531 97.64486311 454.23252774 93 454.25 C91.72697021 454.25265869 91.72697021 454.25265869 90.42822266 454.25537109 C83.37120253 454.51882248 79.05594011 456.69390137 73.31640625 460.828125 C69.45165604 463.35910394 65.66050619 464.8804624 61.3125 466.375 C60.63558105 466.61299316 59.95866211 466.85098633 59.26123047 467.09619141 C35.65191108 475.00015616 9.90751115 472.53171894 -12.65625 462.7578125 C-15.47401439 461.27651113 -17.71769809 459.72878091 -20.25390625 457.84375 C-25.31238592 454.40798212 -29.45677473 454.25766813 -35.4375 454.375 C-58.03995414 454.06229522 -79.74626946 447.0578012 -97 432 C-97.97066406 430.9171875 -97.97066406 430.9171875 -98.9609375 429.8125 C-103.13714145 425.3322812 -106.14881659 423.61503966 -112.18798828 423.29956055 C-113.68754517 423.26652277 -115.18724251 423.23934054 -116.68701172 423.21801758 C-125.29568961 423.08377476 -132.10400531 420.64755637 -138.46875 414.703125 C-144.18995373 408.33974534 -147.2050509 401.66850394 -146.97094727 393.03808594 C-146.87333156 386.72512886 -147.12543725 382.06348756 -151.59521484 377.1862793 C-153.07534553 375.73742592 -154.57224929 374.30877273 -156.078125 372.88671875 C-168.75922666 360.8923045 -177.53874456 338.07024871 -178.07299805 320.61499023 C-178.08371338 319.72497314 -178.09442871 318.83495605 -178.10546875 317.91796875 C-178.12770508 316.51901367 -178.12770508 316.51901367 -178.15039062 315.09179688 C-178.17497856 313.16746774 -178.18042594 311.24279164 -178.16601562 309.31835938 C-178.31229093 302.87781319 -179.64462974 299.19450951 -183.49633789 294.04418945 C-195.23265562 278.08897134 -196.68197084 253.8344432 -195 235 C-194.27047859 230.65139194 -193.22817882 226.39769906 -192.15136719 222.12426758 C-190.87500701 216.6985528 -191.08056225 214.02262621 -193.953125 209.359375 C-196.99613937 202.50123813 -195.86748408 192.28659492 -193.375 185.4375 C-190.12328758 178.62493349 -185.53888057 173.71527305 -179 170 C-178.34 170 -177.68 170 -177 170 C-176.98582031 169.45214844 -176.97164062 168.90429688 -176.95703125 168.33984375 C-175.61532206 146.03846121 -162.43907442 125.05258798 -146.125 110.5 C-145.44695312 109.9328125 -144.76890625 109.365625 -144.0703125 108.78125 C-139.69349121 105.01553206 -136.28019839 101.18919704 -133.1875 96.3125 C-129.93668185 91.31598633 -126.45405066 86.65640807 -122.6640625 82.05859375 C-120.86695118 79.89974641 -120.86695118 79.89974641 -119 77 C-120.155 76.835 -121.31 76.67 -122.5 76.5 C-139.90176009 72.57499733 -155.57742851 60.31637839 -165.26953125 45.63671875 C-172.24784561 34.55439788 -172.24784561 34.55439788 -171.58203125 28.44921875 C-167.6550057 11.92408438 -160.46241628 -2.41218285 -149 -15 C-148.41476563 -15.65484375 -147.82953125 -16.3096875 -147.2265625 -16.984375 C-103.2132153 -63.68398282 -43.24361548 -28.48250156 0 0 Z M52.75 145.9375 C47.62176442 146.83019286 42.56369378 147.322807 37.375 147.625 C36.64385986 147.67213135 35.91271973 147.7192627 35.15942383 147.76782227 C31.15331956 147.99523119 27.41202523 147.84042976 23.4375 147.375 C21.11846294 147.20401714 21.11846294 147.20401714 19 148 C16.68404516 150.5524589 14.92260098 153.2470765 13.078125 156.15625 C9.32182071 161.29645588 3.33618285 164.96091119 -3 166 C-5.61560262 166.09531671 -8.19797368 166.13948491 -10.8125 166.125 C-11.49892578 166.12886719 -12.18535156 166.13273437 -12.89257812 166.13671875 C-16.31928443 166.13023492 -19.20307693 165.95548695 -22.58203125 165.21484375 C-27.14043295 164.92831564 -29.4216638 166.77687965 -32.875 169.4375 C-37.75192502 173.01279012 -42.39565317 175.72281255 -48.02124023 177.95483398 C-54.75909696 180.43454327 -54.75909696 180.43454327 -59.375 185.53125 C-59.86401649 188.70985716 -59.91793509 191.78519617 -60 195 C-60.45622151 197.92559974 -61.0912994 200.80148516 -61.75 203.6875 C-61.92152588 204.45280029 -62.09305176 205.21810059 -62.26977539 206.0065918 C-65.07969084 218.1070509 -69.12113502 229.42796691 -75.54785156 240.0925293 C-77.10673067 242.76935819 -78.00215302 244.62106879 -77.984375 247.75 C-76.7339099 250.60820594 -75.53259399 251.27376808 -72.8125 252.75 C-65.89005751 257.02692307 -62.06751649 263.18516703 -60 271 C-59.83881769 273.7100484 -59.76423818 276.29733792 -59.8125 279 C-59.81314453 279.68578125 -59.81378906 280.3715625 -59.81445312 281.078125 C-59.8404118 284.10086793 -59.99431942 286.96873609 -60.53515625 289.9453125 C-61.58401031 296.83778201 -61.2860544 304.7244003 -58 311 C-53.93313641 314.74878487 -48.39269701 316.22682754 -43.28222656 318.07080078 C-39.59236566 319.57311257 -36.3949335 321.68357548 -33.125 323.9375 C-32.51043945 324.35950684 -31.89587891 324.78151367 -31.26269531 325.21630859 C-23.24769956 330.82594426 -15.68036533 336.68835613 -9.4375 344.2734375 C-8.963125 344.84320313 -8.48875 345.41296875 -8 346 C-7.53335938 346.57363281 -7.06671875 347.14726562 -6.5859375 347.73828125 C-5.08040217 349.17919655 -5.08040217 349.17919655 -3.0390625 349.14453125 C-2.24242187 349.03496094 -1.44578125 348.92539062 -0.625 348.8125 C0.35210937 348.69777344 1.32921875 348.58304688 2.3359375 348.46484375 C3.54507813 348.31144531 4.75421875 348.15804687 6 348 C22.7582422 345.97845115 38.89975492 345.2715254 55.5546875 348.59765625 C59.26682287 349.22000656 59.26682287 349.22000656 63 349 C65.41477429 346.89567185 65.41477429 346.89567185 67.625 344.0625 C71.90080189 339.0954008 76.37095855 335.01536032 81.5546875 330.97265625 C83.86866972 329.10594536 85.94057574 327.14084336 88 325 C87.6803125 324.17757812 87.360625 323.35515625 87.03125 322.5078125 C84.44602129 313.71411786 84.6543268 303.63951436 88.5625 295.3125 C93.43176576 287.01545275 99.67607109 282.44625058 109 280 C113.33177125 279.4297779 117.63428433 279.13685629 122 279 C122.268125 278.319375 122.53625 277.63875 122.8125 276.9375 C125.6356406 269.95394168 128.78817587 263.26113596 132.3203125 256.609375 C134.30883459 252.77106491 135.93579097 249.4070741 136 245 C134.91511582 242.53916516 133.82570068 240.45935085 132.4375 238.1875 C124.72798976 224.62828907 121.02385509 210.20821236 118 195 C116.845 195.495 115.69 195.99 114.5 196.5 C105.20360116 199.5694271 93.90821284 199.45325726 85.04296875 195.19140625 C77.11421313 190.56756215 72.37371202 183.84553674 70 175 C69.83881769 172.2899516 69.76423818 169.70266208 69.8125 167 C69.8134668 165.97132813 69.8134668 165.97132813 69.81445312 164.921875 C69.84175561 161.74265202 70.02761707 158.87930316 70.73828125 155.7734375 C71.29134842 152.93391766 71.29134842 152.93391766 69.5234375 150.6640625 C68.81445312 149.99117187 68.10546875 149.31828125 67.375 148.625 C66.68148437 147.93664062 65.98796875 147.24828125 65.2734375 146.5390625 C61.20802928 143.78687893 57.33328261 145.04048612 52.75 145.9375 Z " fill="#038B3A" transform="translate(227,41)"/>
<path d="M0 0 C0.69899414 0.5576001 1.39798828 1.1152002 2.11816406 1.68969727 C3.96189809 3.27137107 3.96189809 3.27137107 6.49609375 2.78515625 C8.73058997 2.08447959 10.87977523 1.28203089 13.0625 0.4375 C24.2832908 -2.96070051 37.88774716 -2.45852591 48.58984375 2.22265625 C51.55319568 3.1784213 53.05672932 2.96861213 56 2 C58.21137565 0.69820427 58.21137565 0.69820427 60.375 -1 C81.35026748 -16.15393774 104.95819209 -26.74888045 129 -36 C130.20438721 -36.47687256 130.20438721 -36.47687256 131.43310547 -36.96337891 C148.26402328 -43.59444347 162.65842346 -41.16121591 179.25 -34.6875 C202.4714441 -24.41170054 216.92742205 -5.6243233 226.38671875 17.37109375 C228.90611748 24.31049024 230.76865584 30.53497827 227.96484375 37.61328125 C220.43917676 52.43402377 208.54840946 64.01012512 193.8125 71.5 C193.17175537 71.82637451 192.53101074 72.15274902 191.87084961 72.48901367 C187.05385262 74.79765734 182.24129382 76.02712402 177 77 C177.35715088 77.45737549 177.71430176 77.91475098 178.08227539 78.38598633 C179.74738006 80.52430586 181.40601812 82.6674933 183.0625 84.8125 C183.66304199 85.58916016 184.26358398 86.36582031 184.88232422 87.16601562 C188.06440091 91.32367614 190.99207121 95.46515214 193.625 100 C196.70480756 105.05423865 200.57385981 108.17340147 205.2265625 111.76171875 C213.16690846 118.16991345 218.95927222 126.20605563 224 135 C224.78697266 136.36898437 224.78697266 136.36898437 225.58984375 137.765625 C232.82808465 151.24753935 235.14494509 164.0153025 236.3125 179.125 C237.13819287 189.47694189 238.41283342 197.02150044 244 205.76171875 C246.20893151 209.3382895 247.58231315 212.7730042 248.875 216.75 C249.24367188 217.87921875 249.61234375 219.0084375 249.9921875 220.171875 C252.33882875 229.08547355 253.36015633 237.59919148 253.3125 246.8125 C253.31056641 248.38028198 253.31056641 248.38028198 253.30859375 249.97973633 C253.22091644 257.05693932 252.51631895 263.44688163 250.65625 270.29296875 C249.99528585 273.01944585 249.71811843 275.20985018 250 278 C251.61974559 279.71230248 253.2958946 281.37163262 255 283 C261.35262889 291.79865497 262.02742955 300.35954611 261 311 C260.13409382 314.37891653 258.85403833 317.06037344 257 320 C256.649375 320.62132812 256.29875 321.24265625 255.9375 321.8828125 C251.76207617 328.58088823 244.65139273 333.22060634 237 335 C235.68 335 234.36 335 233 335 C232.690625 336.8253125 232.690625 336.8253125 232.375 338.6875 C227.66731819 359.77261006 211.83017669 379.93508846 193.88964844 391.44262695 C190.2171374 393.72398744 186.94715581 395.75498724 182.73828125 396.84375 C179.72598628 397.7408063 179.72598628 397.7408063 178.81640625 400.80078125 C178.41228516 402.38439453 178.41228516 402.38439453 178 404 C173.34159735 412.60707637 167.18422363 421.47409048 159.78515625 427.93359375 C157.42957355 430.6602967 157.40809648 432.56484724 157.125 436.125 C155.95341106 445.057114 152.57825567 451.18515205 145.625 456.9375 C136.50555794 463.32864617 127.92345389 463.98908886 117 463 C112.22513796 461.81990102 108.38402479 460.31298635 104.79296875 456.90625 C100.88367008 454.23808531 97.64486311 454.23252774 93 454.25 C91.72697021 454.25265869 91.72697021 454.25265869 90.42822266 454.25537109 C83.37120253 454.51882248 79.05594011 456.69390137 73.31640625 460.828125 C69.45165604 463.35910394 65.66050619 464.8804624 61.3125 466.375 C60.63558105 466.61299316 59.95866211 466.85098633 59.26123047 467.09619141 C35.65191108 475.00015616 9.90751115 472.53171894 -12.65625 462.7578125 C-15.47401439 461.27651113 -17.71769809 459.72878091 -20.25390625 457.84375 C-25.31238592 454.40798212 -29.45677473 454.25766813 -35.4375 454.375 C-58.03995414 454.06229522 -79.74626946 447.0578012 -97 432 C-97.97066406 430.9171875 -97.97066406 430.9171875 -98.9609375 429.8125 C-103.13714145 425.3322812 -106.14881659 423.61503966 -112.18798828 423.29956055 C-113.68754517 423.26652277 -115.18724251 423.23934054 -116.68701172 423.21801758 C-125.29568961 423.08377476 -132.10400531 420.64755637 -138.46875 414.703125 C-144.18995373 408.33974534 -147.2050509 401.66850394 -146.97094727 393.03808594 C-146.87333156 386.72512886 -147.12543725 382.06348756 -151.59521484 377.1862793 C-153.07534553 375.73742592 -154.57224929 374.30877273 -156.078125 372.88671875 C-168.75922666 360.8923045 -177.53874456 338.07024871 -178.07299805 320.61499023 C-178.08371338 319.72497314 -178.09442871 318.83495605 -178.10546875 317.91796875 C-178.12770508 316.51901367 -178.12770508 316.51901367 -178.15039062 315.09179688 C-178.17497856 313.16746774 -178.18042594 311.24279164 -178.16601562 309.31835938 C-178.31229093 302.87781319 -179.64462974 299.19450951 -183.49633789 294.04418945 C-195.23265562 278.08897134 -196.68197084 253.8344432 -195 235 C-194.27047859 230.65139194 -193.22817882 226.39769906 -192.15136719 222.12426758 C-190.87500701 216.6985528 -191.08056225 214.02262621 -193.953125 209.359375 C-196.99613937 202.50123813 -195.86748408 192.28659492 -193.375 185.4375 C-190.12328758 178.62493349 -185.53888057 173.71527305 -179 170 C-178.34 170 -177.68 170 -177 170 C-176.98582031 169.45214844 -176.97164062 168.90429688 -176.95703125 168.33984375 C-175.61532206 146.03846121 -162.43907442 125.05258798 -146.125 110.5 C-145.44695312 109.9328125 -144.76890625 109.365625 -144.0703125 108.78125 C-139.69349121 105.01553206 -136.28019839 101.18919704 -133.1875 96.3125 C-129.93668185 91.31598633 -126.45405066 86.65640807 -122.6640625 82.05859375 C-120.86695118 79.89974641 -120.86695118 79.89974641 -119 77 C-120.155 76.835 -121.31 76.67 -122.5 76.5 C-139.90176009 72.57499733 -155.57742851 60.31637839 -165.26953125 45.63671875 C-172.24784561 34.55439788 -172.24784561 34.55439788 -171.58203125 28.44921875 C-167.6550057 11.92408438 -160.46241628 -2.41218285 -149 -15 C-148.41476563 -15.65484375 -147.82953125 -16.3096875 -147.2265625 -16.984375 C-103.2132153 -63.68398282 -43.24361548 -28.48250156 0 0 Z M-51 99 C-66.10823985 117.2728036 -77.22063359 139.47797493 -84.05078125 162.13671875 C-85.29897731 164.58688139 -86.43192254 165.10922774 -89 166 C-92.5625 166.0625 -92.5625 166.0625 -96 165 C-99.4104815 158.90065022 -100.35147492 152.11642565 -101.625 145.3125 C-102.0540198 143.07929871 -102.48368041 140.8462204 -102.9140625 138.61328125 C-103.0992041 137.63141846 -103.2843457 136.64955566 -103.47509766 135.63793945 C-103.91988949 133.40260188 -104.42246319 131.20410234 -105 129 C-113.11634859 129.66073564 -120.98476094 131.04081562 -128.96484375 132.62695312 C-133.21739939 133.43880466 -137.14777853 134.09754412 -141.484375 133.91796875 C-144.90498045 133.67112175 -144.90498045 133.67112175 -146.8828125 135.328125 C-147.29273438 135.96234375 -147.70265625 136.5965625 -148.125 137.25 C-148.59808594 137.98089844 -149.07117188 138.71179688 -149.55859375 139.46484375 C-157.26597949 152.93048661 -157.26597949 152.93048661 -160 168 C-159.31035156 168.14695312 -158.62070313 168.29390625 -157.91015625 168.4453125 C-148.60515107 170.66626024 -141.70577986 173.71398776 -136.5625 182.0625 C-131.84222051 190.57514079 -130.16421382 198.96977339 -132.6875 208.6328125 C-133.63387406 210.89622378 -134.71532155 212.91138756 -136 215 C-136.58394531 216.04607422 -136.58394531 216.04607422 -137.1796875 217.11328125 C-141.73543373 224.27038553 -149.15919528 227.38639843 -157 230 C-163.95066551 230.40389002 -170.43434692 230.4430337 -177 228 C-181.7683586 250.09623318 -178.49323253 269.60485014 -167 289 C-166.55446777 289.58531494 -166.10893555 290.17062988 -165.64990234 290.77368164 C-161.04418067 296.99902475 -161.41873477 302.90910909 -161.5 310.4375 C-161.18209527 333.30741822 -154.42145846 351.81409525 -138 368 C-136.5459375 367.13375 -136.5459375 367.13375 -135.0625 366.25 C-133.71187101 365.49364777 -132.35743196 364.74407381 -131 364 C-130.32453125 363.6184375 -129.6490625 363.236875 -128.953125 362.84375 C-121.15750674 358.86058739 -113.21581824 358.97471907 -104.8125 361.0625 C-96.14513739 364.04451865 -90.01276617 369.85644513 -86 378 C-82.44906011 385.44006453 -83.08329968 394.19035657 -85.75 401.8125 C-87.49408806 406.11043129 -89.55136049 410.06468651 -92 414 C-80.63415077 426.76233583 -62.75149261 436.12239169 -45.58764648 437.21777344 C-40.83360526 437.28281092 -36.08751689 437.27368598 -31.33398438 437.17578125 C-22.22734307 437.24579387 -17.24187437 439.68582934 -10 445 C8.60554847 455.45997714 30.14496137 458.04496381 50.74609375 452.40234375 C59.41941519 449.73224687 67.8099655 445.40511543 75.125 440.0625 C80.31117523 436.56593842 86.96032548 437.09330958 93 437 C93.02578125 436.17757813 93.0515625 435.35515625 93.078125 434.5078125 C93.61728771 423.89611 95.58636652 415.63795148 103.00390625 407.7578125 C110.76597343 400.9223326 118.63162056 399.62774037 128.7109375 399.71875 C136.28576073 400.36647835 142.17452472 404.36339723 148 409 C148.66 409.99 149.32 410.98 150 412 C154.1579842 410.4914343 156.07578498 407.54054879 158.4375 404 C158.83291992 403.4220166 159.22833984 402.8440332 159.63574219 402.24853516 C162.46558422 398.02934998 164.76937038 393.7176152 166.734375 389.0234375 C168.41965277 386.32907366 170.19222087 385.469049 173 384 C182.04980479 379.11597837 189.71190844 374.37470725 197 367 C197.76957031 366.25234375 198.53914063 365.5046875 199.33203125 364.734375 C206.86107075 356.98728836 213.35664622 346.57341513 216 336 C216.03245929 333.30475665 216.03245929 333.30475665 215 331 C213.14428076 329.46392182 213.14428076 329.46392182 210.8125 328.3125 C204.07307005 324.17011153 200.44653385 317.40602327 198 310 C197.1239851 301.56580999 197.47687845 294.27632598 202 287 C202.43570312 286.29101562 202.87140625 285.58203125 203.3203125 284.8515625 C207.88538251 278.14115905 214.06438629 273.86720323 222 272 C225.66100106 271.56332026 229.32175427 271.24870701 233 271 C238.44765353 252.273691 238.43140707 234.38017051 231 216 C229.49592589 214.16845907 229.49592589 214.16845907 228 213 C227.43152344 213.39832031 226.86304688 213.79664063 226.27734375 214.20703125 C216.80426945 220.70692029 209.63438134 223.17665902 198 222 C194.6494273 221.11748308 191.94262456 219.80997023 189 218 C188.30261719 217.61070312 187.60523438 217.22140625 186.88671875 216.8203125 C179.72961447 212.26456627 176.61360157 204.84080472 174 197 C173.08711038 187.16772979 175.22075113 180.35262745 179.6875 171.75 C184.48323839 166.04695975 191.63778432 161.51348685 199 160 C204.80441588 159.59081141 210.31528256 159.71132548 216 161 C215.50887057 155.32635549 213.95508426 151.31747353 211.1875 146.375 C210.84396484 145.73304688 210.50042969 145.09109375 210.14648438 144.4296875 C209.14161298 142.5896228 208.08557981 140.79338811 207 139 C206.41863281 138.02289063 205.83726562 137.04578125 205.23828125 136.0390625 C203.08111519 133.63761732 203.08111519 133.63761732 199.5703125 133.84375 C198.87454102 133.88886719 198.17876953 133.93398437 197.46191406 133.98046875 C192.19932134 134.02221879 187.00597319 132.56775033 181.875 131.5 C179.5818104 131.02598874 177.28756287 130.55706106 174.9921875 130.09375 C173.98526855 129.88427734 172.97834961 129.67480469 171.94091797 129.45898438 C168.91290735 128.98640759 166.05952079 128.9203398 163 129 C162.83395264 129.77077881 162.66790527 130.54155762 162.49682617 131.33569336 C161.73220648 134.87076651 160.9599129 138.40412183 160.1875 141.9375 C159.92646484 143.14986328 159.66542969 144.36222656 159.39648438 145.61132812 C157.94211353 152.23679532 156.29368466 158.61487783 154 165 C148.140625 166.171875 148.140625 166.171875 146 166 C141.91533001 163.0465862 140.80004877 159.18949038 139.375 154.5625 C129.04018085 123.52757632 109.89777742 91.46200846 80 76 C71.50606476 72.12399567 65.59158256 70.11919496 56.5625 73.15625 C55.386875 73.5996875 54.21125 74.043125 53 74.5 C37.57096312 80.31972444 17.64260855 80.01747907 2.25390625 73.91015625 C0.79351848 73.23631559 -0.65283707 72.52950302 -2.0703125 71.76953125 C-17.83372591 65.48331173 -41.67463946 88.46234259 -51 99 Z " fill="#202020" transform="translate(227,41)"/>
<path d="M0 0 C0.69867188 0.4125 1.39734375 0.825 2.1171875 1.25 C10.42766002 6.76940817 13.85906166 14.57586954 16 24 C29.68757722 24.30492127 42.75654923 23.84436663 56 20 C58.98594733 19.50923011 60.8893728 19.64880015 64 20 C66.5625 22 66.5625 22 69 25 C70.26742909 26.44050239 71.53841547 27.87788081 72.8125 29.3125 C73.87675995 30.54014315 74.93987294 31.76878615 76 33 C79.22107038 31.978685 82.17022662 30.9132178 85.1875 29.375 C92.41642242 26.25414362 100.46125943 27.65120323 107.6953125 30.06640625 C111.02419894 31.41488737 113.96307849 33.08541905 117 35 C117 35.66 117 36.32 117 37 C117.59425781 37.21785156 118.18851563 37.43570313 118.80078125 37.66015625 C121.73131229 39.44554194 122.62215957 41.40741942 124.1875 44.4375 C124.95126953 45.88962891 124.95126953 45.88962891 125.73046875 47.37109375 C127.88534712 51.83334958 128.05316881 54.95656088 127.9375 59.875 C127.73694222 86.24226996 133.01752394 110.26069786 147.5625 132.5 C149.64624552 135.96142851 150.86574247 138.60636943 149.94140625 142.76171875 C148.4354802 146.34219853 146.34450071 149.53966828 144.22924805 152.7890625 C138.80249724 161.19925747 135.37879997 170.61444452 132 180 C132.59554688 180.23074219 133.19109375 180.46148437 133.8046875 180.69921875 C136.57607499 182.34133981 137.53150849 184.03014702 139.125 186.8125 C139.62257813 187.66457031 140.12015625 188.51664063 140.6328125 189.39453125 C144.75348628 197.24735813 145.14104621 204.53011467 142.875 213.125 C139.71027668 222.35544301 134.66555627 228.49391074 126 233 C119.27480024 236.21639989 112.38223573 236.95349782 105 236 C102.51964055 235.06846229 100.3154715 234.02415083 98.03515625 232.6796875 C95.94316916 231.77288714 95.94316916 231.77288714 93.54296875 232.66015625 C83.06917907 238.17860457 73.89996361 247.83594969 67.19140625 257.46875 C66 259 66 259 64 260 C58.20373106 260.42154683 53.6232995 259.52325541 48.1015625 257.75390625 C39.849268 255.74799587 31.32302782 255.81781323 22.875 255.8125 C21.84246094 255.80025391 20.80992187 255.78800781 19.74609375 255.77539062 C13.79987051 255.76402841 8.69554805 256.27221384 3 258 C3.886875 258.66 4.77375 259.32 5.6875 260 C11.85553581 265.14732066 15.52319538 272.32066167 16.3359375 280.296875 C16.46616016 291.80855815 14.27695105 299.55621042 6.29296875 308.01953125 C-1.92454073 315.11710758 -11.46384696 316.97377095 -22.04296875 316.26074219 C-30.36174648 315.15240204 -37.25841631 309.85772631 -42.375 303.47265625 C-47.75847395 295.28097594 -49.20528423 286.67917027 -48 277 C-47.09228266 273.68020233 -45.78913562 270.93173001 -44 268 C-43.57589844 267.30132812 -43.15179688 266.60265625 -42.71484375 265.8828125 C-38.04796355 258.99298936 -31.71537904 254.90174185 -24 252 C-36.74485966 236.5120414 -51.96365478 226.5683188 -70.43701172 219.13085938 C-74.03445021 217.62984193 -76.49269868 216.58992995 -79.0625 213.6015625 C-80.13666631 210.62075098 -80.30173473 208.34799415 -80.1875 205.1875 C-80.16042969 204.21167969 -80.13335937 203.23585938 -80.10546875 202.23046875 C-80.07066406 201.49441406 -80.03585938 200.75835937 -80 200 C-80.87398437 200.433125 -80.87398437 200.433125 -81.765625 200.875 C-90.02862334 204.6167351 -97.96080882 205.40132518 -106.75 202.875 C-115.40446119 199.51024565 -122.2358713 193.17495921 -126.03515625 184.6875 C-128.75223972 176.80163913 -129.60083371 168.09188028 -126.375 160.25 C-122.20590703 152.21686964 -117.23665104 146.089825 -109 142 C-106.55779424 141.32459145 -104.549743 141.1084997 -102 141 C-101.86658203 139.700625 -101.86658203 139.700625 -101.73046875 138.375 C-100.90018528 134.53882399 -99.49018121 132.25200395 -97.3125 129 C-87.06520915 113.01918797 -81.06025983 93.8507735 -80.5703125 74.8828125 C-80.36792453 70.41341146 -80.0295398 67.35908898 -77 64 C-73.99065327 62.27345172 -70.83621076 60.99009973 -67.625 59.6875 C-59.21354132 56.10982017 -51.5950628 52.08647454 -44 47 C-44.57301386 43.80113622 -45.36088245 40.95025125 -46.5625 37.9375 C-48.98679862 30.72461153 -49.25971109 23.19127822 -46.25 16.125 C-45.52764446 14.73527792 -44.77970709 13.35837471 -44 12 C-43.443125 10.96875 -42.88625 9.9375 -42.3125 8.875 C-31.96094484 -3.99450101 -14.64283048 -8.90818584 0 0 Z M47.75 38.9375 C42.62176442 39.83019286 37.56369378 40.322807 32.375 40.625 C31.64385986 40.67213135 30.91271973 40.7192627 30.15942383 40.76782227 C26.15331956 40.99523119 22.41202523 40.84042976 18.4375 40.375 C16.11846294 40.20401714 16.11846294 40.20401714 14 41 C11.68404516 43.5524589 9.92260098 46.2470765 8.078125 49.15625 C4.32182071 54.29645588 -1.66381715 57.96091119 -8 59 C-10.61560262 59.09531671 -13.19797368 59.13948491 -15.8125 59.125 C-16.49892578 59.12886719 -17.18535156 59.13273437 -17.89257812 59.13671875 C-21.31928443 59.13023492 -24.20307693 58.95548695 -27.58203125 58.21484375 C-32.14043295 57.92831564 -34.4216638 59.77687965 -37.875 62.4375 C-42.75192502 66.01279012 -47.39565317 68.72281255 -53.02124023 70.95483398 C-59.75909696 73.43454327 -59.75909696 73.43454327 -64.375 78.53125 C-64.86401649 81.70985716 -64.91793509 84.78519617 -65 88 C-65.45622151 90.92559974 -66.0912994 93.80148516 -66.75 96.6875 C-66.92152588 97.45280029 -67.09305176 98.21810059 -67.26977539 99.0065918 C-70.07969084 111.1070509 -74.12113502 122.42796691 -80.54785156 133.0925293 C-82.10673067 135.76935819 -83.00215302 137.62106879 -82.984375 140.75 C-81.7339099 143.60820594 -80.53259399 144.27376808 -77.8125 145.75 C-70.89005751 150.02692307 -67.06751649 156.18516703 -65 164 C-64.83881769 166.7100484 -64.76423818 169.29733792 -64.8125 172 C-64.81314453 172.68578125 -64.81378906 173.3715625 -64.81445312 174.078125 C-64.8404118 177.10086793 -64.99431942 179.96873609 -65.53515625 182.9453125 C-66.58401031 189.83778201 -66.2860544 197.7244003 -63 204 C-58.93313641 207.74878487 -53.39269701 209.22682754 -48.28222656 211.07080078 C-44.59236566 212.57311257 -41.3949335 214.68357548 -38.125 216.9375 C-37.51043945 217.35950684 -36.89587891 217.78151367 -36.26269531 218.21630859 C-28.24769956 223.82594426 -20.68036533 229.68835613 -14.4375 237.2734375 C-13.963125 237.84320313 -13.48875 238.41296875 -13 239 C-12.53335938 239.57363281 -12.06671875 240.14726562 -11.5859375 240.73828125 C-10.08040217 242.17919655 -10.08040217 242.17919655 -8.0390625 242.14453125 C-7.24242187 242.03496094 -6.44578125 241.92539062 -5.625 241.8125 C-4.64789063 241.69777344 -3.67078125 241.58304688 -2.6640625 241.46484375 C-1.45492187 241.31144531 -0.24578125 241.15804687 1 241 C17.7582422 238.97845115 33.89975492 238.2715254 50.5546875 241.59765625 C54.26682287 242.22000656 54.26682287 242.22000656 58 242 C60.41477429 239.89567185 60.41477429 239.89567185 62.625 237.0625 C66.90080189 232.0954008 71.37095855 228.01536032 76.5546875 223.97265625 C78.86866972 222.10594536 80.94057574 220.14084336 83 218 C82.6803125 217.17757812 82.360625 216.35515625 82.03125 215.5078125 C79.44602129 206.71411786 79.6543268 196.63951436 83.5625 188.3125 C88.43176576 180.01545275 94.67607109 175.44625058 104 173 C108.33177125 172.4297779 112.63428433 172.13685629 117 172 C117.268125 171.319375 117.53625 170.63875 117.8125 169.9375 C120.6356406 162.95394168 123.78817587 156.26113596 127.3203125 149.609375 C129.30883459 145.77106491 130.93579097 142.4070741 131 138 C129.91511582 135.53916516 128.82570068 133.45935085 127.4375 131.1875 C119.72798976 117.62828907 116.02385509 103.20821236 113 88 C111.845 88.495 110.69 88.99 109.5 89.5 C100.20360116 92.5694271 88.90821284 92.45325726 80.04296875 88.19140625 C72.11421313 83.56756215 67.37371202 76.84553674 65 68 C64.83881769 65.2899516 64.76423818 62.70266208 64.8125 60 C64.8134668 58.97132813 64.8134668 58.97132813 64.81445312 57.921875 C64.84175561 54.74265202 65.02761707 51.87930316 65.73828125 48.7734375 C66.29134842 45.93391766 66.29134842 45.93391766 64.5234375 43.6640625 C63.81445312 42.99117187 63.10546875 42.31828125 62.375 41.625 C61.68148437 40.93664062 60.98796875 40.24828125 60.2734375 39.5390625 C56.20802928 36.78687893 52.33328261 38.04048612 47.75 38.9375 Z " fill="#1F2020" transform="translate(232,148)"/>
<path d="M0 0 C3.5390383 2.71119309 4.40707968 6.52959624 5.625 10.625 C5.84373779 11.34993652 6.06247559 12.07487305 6.2878418 12.82177734 C7.77520443 17.90032669 8.85633771 22.69347409 9 28 C9.061875 29.01964844 9.12375 30.03929687 9.1875 31.08984375 C9.53100406 40.63281599 7.64006703 48.9247696 5 58 C4.31035156 58.02578125 3.62070312 58.0515625 2.91015625 58.078125 C-7.25408584 58.69160463 -15.5450468 61.90314499 -23 69 C-28.85762384 76.4335328 -30.57823001 83.93827975 -30.44921875 93.31640625 C-29.4654492 101.38331656 -25.34656032 108.89179291 -19 114 C-16.69823675 115.72391474 -14.37251917 117.37180057 -12 119 C-12.5125554 124.63810941 -14.03324532 128.86636474 -16.625 133.875 C-16.9854541 134.57898926 -17.3459082 135.28297852 -17.71728516 136.00830078 C-20.60761703 141.51581229 -23.79883484 146.39087046 -28 151 C-29.09054687 152.22783203 -29.09054687 152.22783203 -30.203125 153.48046875 C-37.50796574 161.26837154 -45.95563723 166.72608446 -55.625 171.1875 C-60.65297343 173.88770796 -62.14138517 178.24847495 -64.6875 183.1875 C-67.82836966 189.0103717 -71.71183833 193.98263317 -76 199 C-79 198 -79 198 -81.25 195.6875 C-87.09789365 189.97251302 -94.04367967 186.71723304 -102.25 186.6875 C-111.74230911 186.86942701 -119.10902448 189.2976196 -126 196 C-131.48438115 202.78555362 -134.08897352 209.11990083 -134.625 217.875 C-134.73714844 219.60363281 -134.73714844 219.60363281 -134.8515625 221.3671875 C-134.92503906 222.67042969 -134.92503906 222.67042969 -135 224 C-135.85980469 223.979375 -136.71960938 223.95875 -137.60546875 223.9375 C-146.59825872 224.094408 -151.42757819 225.87929457 -158.93359375 230.9375 C-175.56497315 242.12395646 -196.2240168 244.15931914 -215.60546875 240.84375 C-222.28476084 239.18353471 -228.63758976 236.5972355 -235 234 C-231.99649196 231.9976613 -230.7536944 231.64009155 -227.30078125 231.17578125 C-225.87668945 230.96961182 -225.87668945 230.96961182 -224.42382812 230.75927734 C-223.39708984 230.61184082 -222.37035156 230.4644043 -221.3125 230.3125 C-174.10109106 222.89214142 -132.2487704 199.80469013 -98 167 C-97.24976563 166.29101562 -96.49953125 165.58203125 -95.7265625 164.8515625 C-81.79732531 151.3627755 -70.50202577 134.83046843 -61 118 C-60.62633301 117.34837891 -60.25266602 116.69675781 -59.86767578 116.02539062 C-53.28624524 104.47350657 -48.43083162 92.51853953 -44 80 C-43.74202637 79.27973633 -43.48405273 78.55947266 -43.21826172 77.81738281 C-35.27766491 55.51498987 -33.0380567 32.4496406 -31 9 C-30.07960938 9.08121094 -29.15921875 9.16242188 -28.2109375 9.24609375 C-17.68413988 9.77136166 -10.96233451 7.66717003 -2 2 C-1.34 1.34 -0.68 0.68 0 0 Z " fill="#036A2C" transform="translate(455,254)"/>
<path d="M0 0 C1.19898926 0.44875488 2.39797852 0.89750977 3.63330078 1.35986328 C25.0133981 9.46776763 45.34320101 20.09443125 64 33.375 C64.763125 33.84679688 65.52625 34.31859375 66.3125 34.8046875 C68 36.375 68 36.375 68.27734375 38.44140625 C68.16519531 39.26511719 68.05304688 40.08882812 67.9375 40.9375 C67.751875 42.37222656 67.751875 42.37222656 67.5625 43.8359375 C67.376875 45.00382812 67.19125 46.17171875 67 47.375 C66.82210937 48.50083496 66.82210937 48.50083496 66.640625 49.64941406 C65.80434054 54.89918975 64.91594234 60.13857493 64 65.375 C60.81527123 63.86305806 57.80922865 62.09199938 54.77368164 60.3034668 C40.83125337 52.18426047 26.72251841 47.69348237 11 44.375 C10.13375 44.17132813 9.2675 43.96765625 8.375 43.7578125 C-10.13745169 39.579655 -29.19430017 40.11734773 -48.04547119 40.2376709 C-51.6598471 40.25847454 -55.27425281 40.26733684 -58.88867188 40.27734375 C-65.92585175 40.29851673 -72.96291407 40.33245244 -80 40.375 C-74.37541517 23.1056507 -62.97281985 9.36425404 -46.81445312 1.00048828 C-33.90647866 -5.45053569 -33.90647866 -5.45053569 -26.6875 -6.375 C-26.01074219 -6.47296875 -25.33398438 -6.5709375 -24.63671875 -6.671875 C-16.06636056 -6.51951308 -7.91481369 -2.96541241 0 0 Z " fill="#D51919" transform="translate(155,22.625)"/>
<path d="M0 0 C0.78568359 0.27030029 1.57136719 0.54060059 2.38085938 0.8190918 C20.98969144 7.47354003 33.73896511 19.77502826 42.8125 37.0625 C44.25 40.4375 44.25 40.4375 44.25 43.4375 C43.51180527 43.44336624 42.77361053 43.44923248 42.01304626 43.45527649 C34.94154753 43.51398885 27.87034163 43.58648502 20.79913998 43.67321491 C17.16665435 43.71731552 13.53426558 43.7566896 9.90161133 43.78393555 C-11.74448608 43.95136419 -33.19966665 44.64088177 -54.25 50.25 C-55.24499512 50.50861816 -56.23999023 50.76723633 -57.26513672 51.03369141 C-69.69112117 54.36355674 -80.77077417 59.12460435 -91.82421875 65.703125 C-94.106459 67.05601508 -96.372436 68.27091882 -98.75 69.4375 C-99.42336904 65.54279437 -100.08751584 61.64657067 -100.75 57.75 C-100.94078125 56.64720703 -101.1315625 55.54441406 -101.328125 54.40820312 C-101.50859375 53.34150391 -101.6890625 52.27480469 -101.875 51.17578125 C-102.04257812 50.19649658 -102.21015625 49.21721191 -102.3828125 48.20825195 C-102.7347628 45.55247808 -102.94343356 43.11018915 -102.75 40.4375 C-101.01953125 38.69921875 -101.01953125 38.69921875 -98.5625 37.125 C-97.63824219 36.52558594 -96.71398437 35.92617188 -95.76171875 35.30859375 C-94.27091797 34.38240234 -94.27091797 34.38240234 -92.75 33.4375 C-91.80769531 32.83035156 -90.86539062 32.22320312 -89.89453125 31.59765625 C-86.54893657 29.48123219 -83.1623883 27.44352922 -79.75 25.4375 C-79.05181152 25.02483887 -78.35362305 24.61217773 -77.63427734 24.18701172 C-63.55403977 15.94320545 -48.91065795 9.43463476 -33.75 3.4375 C-32.42186279 2.9120459 -32.42186279 2.9120459 -31.06689453 2.37597656 C-28.76073559 1.47759153 -26.44742834 0.60532629 -24.125 -0.25 C-23.48151611 -0.49403564 -22.83803223 -0.73807129 -22.17504883 -0.98950195 C-14.18475229 -3.80143294 -7.72414111 -2.6909102 0 0 Z " fill="#D61919" transform="translate(391.75,18.5625)"/>
<path d="M0 0 C15.66282057 6.43837916 36.39596083 6.44594903 52.01171875 -0.0625 C53.64309324 -0.76479575 55.26311552 -1.49486454 56.86328125 -2.265625 C64.8665198 -4.46109076 74.18784709 0.52385293 81.3125 4.0625 C85.24393114 6.44639965 88.78184269 9.12299729 92.3125 12.0625 C93.14136719 12.74054688 93.97023438 13.41859375 94.82421875 14.1171875 C113.68500588 30.28357647 126.94721559 52.96455842 135.1796875 76.23828125 C135.48608154 77.10445068 135.79247559 77.97062012 136.1081543 78.86303711 C136.68852514 80.53837532 137.25091364 82.22008765 137.79223633 83.90844727 C139.40380064 88.67158519 139.40380064 88.67158519 143.01953125 92.1015625 C144.15455078 92.57722656 144.15455078 92.57722656 145.3125 93.0625 C145.03081703 95.02229427 144.73683283 96.98032378 144.4375 98.9375 C144.19386719 100.57332031 144.19386719 100.57332031 143.9453125 102.2421875 C143.3125 105.0625 143.3125 105.0625 141.3125 107.0625 C138.84765625 107.01171875 138.84765625 107.01171875 136.3125 106.0625 C134.87109375 103.83203125 134.87109375 103.83203125 133.75 100.875 C133.33492187 99.7921875 132.91984375 98.709375 132.4921875 97.59375 C131.30747167 94.04744831 130.32598702 90.49032255 129.375 86.875 C127.72557347 80.80241742 125.45938575 75.83734273 121.3125 71.0625 C120.6525 70.7325 119.9925 70.4025 119.3125 70.0625 C118.61315107 68.15614222 117.91656121 66.24871132 117.23632812 64.33544922 C115.66251765 60.4633098 113.37371293 57.09181939 111.0625 53.625 C110.57088379 52.87855225 110.07926758 52.13210449 109.57275391 51.36303711 C103.52078272 42.25328016 96.76887733 34.06257151 89.3125 26.0625 C88.3225 24.99128906 88.3225 24.99128906 87.3125 23.8984375 C82.47327122 18.84456551 77.18779245 14.8483736 71.3125 11.0625 C70.51199219 10.48113281 69.71148437 9.89976563 68.88671875 9.30078125 C65.50501171 7.6740724 63.90143232 8.08370028 60.3125 9.0625 C58.12778553 9.84730034 55.96073685 10.68274586 53.8125 11.5625 C45.25395174 15.06742929 37.1467416 15.33513992 28.01196289 15.41259766 C26.6032645 15.42901343 25.19464428 15.45610938 23.78637695 15.49462891 C12.35432051 15.80422186 2.37606488 14.27079916 -7.92919922 8.89257812 C-10.78240434 7.54560542 -12.70612889 8.22756831 -15.6875 9.0625 C-17.99421606 10.36165172 -20.00868103 11.63219917 -22.125 13.1875 C-22.72481689 13.62489502 -23.32463379 14.06229004 -23.94262695 14.51293945 C-52.44052594 35.98507129 -70.95557229 70.26877671 -82.2734375 103.4921875 C-83.6875 106.0625 -83.6875 106.0625 -86.3515625 106.9453125 C-87.12242187 106.98398438 -87.89328125 107.02265625 -88.6875 107.0625 C-92.00192207 102.59523547 -92.34759167 98.44242836 -92.6875 93.0625 C-91.93984375 92.7634375 -91.1921875 92.464375 -90.421875 92.15625 C-86.37718969 89.05917668 -85.53387684 85.28627437 -83.9375 80.5625 C-75.95654242 58.42516161 -65.61575893 38.5043039 -49.6875 21.0625 C-48.98753906 20.29164063 -48.28757813 19.52078125 -47.56640625 18.7265625 C-36.16285308 6.74938996 -16.59267778 -7.08839195 0 0 Z " fill="#036A2C" transform="translate(229.6875,114.9375)"/>
<path d="M0 0 C-2.22392569 1.48261713 -4.25166422 2.67594379 -6.625 3.84765625 C-15.72264196 8.43252508 -23.37095841 13.1917195 -31 20 C-32.03125 20.78375 -33.0625 21.5675 -34.125 22.375 C-38.62104716 26.48008654 -42.26394563 31.20657175 -46 36 C-46.63808594 36.79921875 -47.27617187 37.5984375 -47.93359375 38.421875 C-55.81269913 48.70893982 -62.29327809 60.38286297 -68 72 C-70.36786796 67.79271529 -71.11945365 63.3616395 -72.12109375 58.6796875 C-72.79619691 55.68972554 -72.79619691 55.68972554 -76 54 C-85.51662757 53.62221327 -95.64537109 56.36371178 -105 58 C-99.58615496 45.70322634 -91.16659882 35.69664025 -82 26 C-81.24203125 25.17757812 -80.4840625 24.35515625 -79.703125 23.5078125 C-58.86401026 1.64717253 -27.85836926 -17.39662035 0 0 Z " fill="#EC4444" transform="translate(207,99)"/>
<path d="M0 0 C0.77802979 0.26441895 1.55605957 0.52883789 2.35766602 0.80126953 C19.71008705 6.96066992 34.30127491 16.95783309 47.625 29.5625 C48.43710937 30.31015625 49.24921875 31.0578125 50.0859375 31.828125 C59.83251764 41.1135105 68.3272118 52.12294207 73.625 64.5625 C68.25983144 64.1078247 63.2336588 63.28270019 58 62 C51.36203046 60.38217587 51.36203046 60.38217587 44.625 60.5625 C40.4811835 63.70743041 39.80107343 66.81170347 38.875 71.8125 C38.51148438 73.70742187 38.51148438 73.70742187 38.140625 75.640625 C37.97046875 76.60484375 37.8003125 77.5690625 37.625 78.5625 C34.46018504 76.98009252 33.68787418 73.71608394 32.25 70.625 C25.66864037 57.01619188 17.2889381 44.31530425 6.625 33.5625 C5.820625 32.716875 5.01625 31.87125 4.1875 31 C2.9190625 29.7934375 2.9190625 29.7934375 1.625 28.5625 C0.9546875 27.89734375 0.284375 27.2321875 -0.40625 26.546875 C-9.43553133 17.92801555 -19.88644573 12.31638453 -31.375 7.5625 C-28.731548 4.53742289 -25.61732917 2.81202444 -22.125 0.875 C-21.02671875 0.25238281 -19.9284375 -0.37023437 -18.796875 -1.01171875 C-12.11526467 -3.79572306 -6.54025829 -2.2425795 0 0 Z " fill="#EC4444" transform="translate(336.375,92.4375)"/>
<path d="M0 0 C1.05848145 0.36673828 2.11696289 0.73347656 3.20751953 1.11132812 C4.00270996 1.39427734 4.79790039 1.67722656 5.6171875 1.96875 C6.47835497 6.69982695 7.33262407 11.43207965 8.18066406 16.16552734 C8.46980921 17.77393764 8.76080088 19.38201717 9.05371094 20.98974609 C9.47562655 23.30741177 9.890777 25.62620552 10.3046875 27.9453125 C10.43593018 28.65805328 10.56717285 29.37079407 10.70239258 30.10513306 C11.4095646 34.10977328 11.75064988 37.9037084 11.6171875 41.96875 C-4.54659774 46.84181581 -18.36572326 47.95281232 -34.3828125 41.96875 C-33.74984201 33.08049014 -32.78450647 24.27849986 -31.4453125 15.46875 C-31.29513672 14.2209375 -31.14496094 12.973125 -30.99023438 11.6875 C-29.60513699 2.91364077 -29.60513699 2.91364077 -26.16699219 0.25585938 C-17.43119183 -3.42684793 -8.84390436 -3.09967163 0 0 Z " fill="#EB4444" transform="translate(267.3828125,58.03125)"/>
<path d="M0 0 C0.95018005 -0.00409882 1.90036011 -0.00819763 2.8793335 -0.01242065 C5.9547487 -0.02197552 9.03004087 -0.02195094 12.10546875 -0.01953125 C13.14508759 -0.01992401 14.18470642 -0.02031677 15.25582886 -0.02072144 C51.31778589 -0.00431202 51.31778589 -0.00431202 65.29296875 3.16796875 C65.29296875 3.82796875 65.29296875 4.48796875 65.29296875 5.16796875 C64.19339844 5.72484375 63.09382813 6.28171875 61.9609375 6.85546875 C52.13033059 11.90328718 43.1598822 17.17088513 34.7109375 24.3671875 C31.9741901 26.40537902 30.17381875 26.74259233 26.78515625 26.55078125 C10.66827047 24.07514676 -1.69539324 16.86893884 -12.70703125 5.16796875 C-14.046875 2.83203125 -14.046875 2.83203125 -14.70703125 1.16796875 C-9.82512698 -0.09421282 -5.00555705 0.00663335 0 0 Z " fill="#A21717" transform="translate(92.70703125,77.83203125)"/>
<path d="M0 0 C1.07209717 0.00104736 2.14419434 0.00209473 3.2487793 0.00317383 C6.34695016 0.00956669 9.44486718 0.02556014 12.54296875 0.046875 C13.47441208 0.05124573 14.40585541 0.05561646 15.36552429 0.06011963 C20.28008894 0.11326012 24.96603294 0.42369537 29.8125 1.25 C24.03872274 12.45792056 12.28369219 19.5099422 0.75 23.6875 C-1.21633398 24.25486119 -3.19649094 24.77644857 -5.1875 25.25 C-6.19941406 25.49363281 -7.21132813 25.73726562 -8.25390625 25.98828125 C-12.59272193 26.71418783 -15.74155811 27.08481813 -19.63671875 24.8359375 C-21.26788044 23.48247772 -22.86152231 22.0829553 -24.421875 20.6484375 C-27.66456292 17.83627594 -31.06446404 15.67914265 -34.75 13.5 C-35.71365479 12.9289856 -35.71365479 12.9289856 -36.69677734 12.34643555 C-41.39219197 9.61476585 -46.14500265 7.28469191 -51.1875 5.25 C-51.1875 4.59 -51.1875 3.93 -51.1875 3.25 C-34.12523784 0.35843874 -17.26567735 -0.03745266 0 0 Z " fill="#A31717" transform="translate(404.1875,77.75)"/>
<path d="M0 0 C8.48628313 0.44664648 16.5157733 1.78700355 24.79199219 3.62792969 C28.77215984 4.48430212 32.30560685 5.07848375 36.3828125 4.859375 C40 5 40 5 42.1015625 6.73046875 C53.43211982 25.00462401 53.43211982 25.00462401 52.65625 30.3828125 C52.4396875 30.91648438 52.223125 31.45015625 52 32 C51.45730469 31.84015625 50.91460937 31.6803125 50.35546875 31.515625 C47.62802635 30.91857293 45.10475494 30.79380008 42.3125 30.75 C41.33925781 30.72421875 40.36601562 30.6984375 39.36328125 30.671875 C34.96063888 30.97542644 34.96063888 30.97542644 27 34 C25.02 27.73 23.04 21.46 21 15 C9.615 12.525 9.615 12.525 -2 10 C-1.34 6.7 -0.68 3.4 0 0 Z " fill="#036A2C" transform="translate(390,170)"/>
<path d="M0 0 C5.67476113 1.96434039 9.31400331 5.62800662 12 11 C12.54360446 15.95482094 12.56437074 19.87125852 10.3125 24.375 C7.14745126 27.96775803 3.78798338 31.69412413 -1.171875 32.23828125 C-7.01846537 32.40659218 -10.43192863 32.02425335 -15 28 C-19.3022759 23.23261319 -20.36282503 19.56252705 -20.28125 13.28125 C-19.69180611 8.50020514 -16.85179203 5.75038822 -13.375 2.6875 C-8.92314854 -0.47565762 -5.3540278 -0.48837416 0 0 Z " fill="#F69A15" transform="translate(220,416)"/>
<path d="M0 0 C5.67476113 1.96434039 9.31400331 5.62800662 12 11 C12.54360446 15.95482094 12.56437074 19.87125852 10.3125 24.375 C6.72054254 28.45235712 3.52833982 31.59004052 -2.05078125 32.23828125 C-7.58896758 32.42001793 -10.64755155 31.74513006 -15 28 C-19.3022759 23.23261319 -20.36282503 19.56252705 -20.28125 13.28125 C-19.69180611 8.50020514 -16.85179203 5.75038822 -13.375 2.6875 C-8.92314854 -0.47565762 -5.3540278 -0.48837416 0 0 Z " fill="#D31919" transform="translate(116,416)"/>
<path d="M0 0 C5.67476113 1.96434039 9.31400331 5.62800662 12 11 C12.54360446 15.95482094 12.56437074 19.87125852 10.3125 24.375 C7.14745126 27.96775803 3.78798338 31.69412413 -1.171875 32.23828125 C-7.01846537 32.40659218 -10.43192863 32.02425335 -15 28 C-19.3022759 23.23261319 -20.36282503 19.56252705 -20.28125 13.28125 C-19.69180611 8.50020514 -16.85179203 5.75038822 -13.375 2.6875 C-8.92314854 -0.47565762 -5.3540278 -0.48837416 0 0 Z " fill="#F69A15" transform="translate(68,224)"/>
<path d="M0 0 C4.98669007 2.49334503 8.49675474 5.99350949 11 11 C11.59057744 16.67862925 11.29370905 21.16922672 8 26 C3.99653611 30.03627917 0.41408246 32.12458106 -5.3125 32.3125 C-9.94226662 32.25237316 -12.4369151 31.06591027 -16 28 C-20.48735572 23.14880463 -21.37944978 19.62737243 -21.28125 13.0234375 C-20.64340739 8.4345143 -17.71392374 5.62893282 -14.375 2.6875 C-9.71860985 -0.62098774 -5.60468123 -0.62082623 0 0 Z " fill="#D41919" transform="translate(357,456)"/>
<path d="M0 0 C4.35699098 2.46622131 7.04335342 5.33670683 9.3125 9.875 C9.85610446 14.82982094 9.87687074 18.74625852 7.625 23.25 C2.76555518 28.76612655 -0.37891704 30.60817879 -7.5625 31.1875 C-11.92205451 31.12267391 -14.3259369 29.70176897 -17.6875 26.875 C-21.9897759 22.10761319 -23.05032503 18.43752705 -22.96875 12.15625 C-22.37930611 7.37520514 -19.53929203 4.62538822 -16.0625 1.5625 C-10.83094803 -2.15465535 -5.95356591 -1.81634214 0 0 Z " fill="#D31919" transform="translate(142.6875,305.125)"/>
<path d="M0 0 C5.67476113 1.96434039 9.31400331 5.62800662 12 11 C12.3962444 16.84460492 11.95926533 20.77196458 9 26 C5.10505806 30.11842222 1.36523384 32.12618404 -4.3125 32.3125 C-8.94226662 32.25237316 -11.4369151 31.06591027 -15 28 C-19.39893104 23.00661882 -20.35676337 20.08984773 -20.28125 13.5390625 C-19.73016315 8.56397287 -16.99302299 5.87480597 -13.375 2.6875 C-8.92314854 -0.47565762 -5.3540278 -0.48837416 0 0 Z " fill="#F79B15" transform="translate(220,160)"/>
<path d="M0 0 C4.76287474 2.37744836 9.11612714 5.93709169 11 11 C11.73969842 16.68511073 11.29771624 21.16334952 8 26 C3.99653611 30.03627917 0.41408246 32.12458106 -5.3125 32.3125 C-9.94226662 32.25237316 -12.4369151 31.06591027 -16 28 C-20.48735572 23.14880463 -21.37944978 19.62737243 -21.28125 13.0234375 C-20.64340739 8.4345143 -17.71392374 5.62893282 -14.375 2.6875 C-9.73764578 -0.60746221 -5.58952985 -0.86494914 0 0 Z " fill="#D31919" transform="translate(349,336)"/>
<path d="M0 0 C5.67476113 1.96434039 9.31400331 5.62800662 12 11 C12.81262128 17.54093522 11.85964688 21.67994619 8 27 C3.22703526 31.5343165 -0.42194146 32.37871648 -6.9765625 32.28125 C-11.51595629 31.65029179 -14.32147321 28.73354247 -17.3125 25.5 C-20.32620645 21.03524971 -20.74144654 16.33429591 -20 11 C-15.42948886 2.1975341 -9.49429397 -0.86603357 0 0 Z " fill="#D41919" transform="translate(332,192)"/>
<path d="M0 0 C3.88446678 2.58964452 6.69907021 5.64814041 8.8125 9.875 C9.35610446 14.82982094 9.37687074 18.74625852 7.125 23.25 C3.95945477 26.84332162 0.62479713 30.46204187 -4.2890625 31.18359375 C-10.33435461 31.49240898 -13.93100115 30.63097174 -18.55859375 26.6484375 C-21.96929682 22.9351061 -23.0113997 19.28380236 -23.625 14.375 C-22.92517626 8.77641012 -20.73286101 5.30728582 -16.625 1.5 C-11.38219552 -1.99520299 -5.78544111 -2.04192039 0 0 Z " fill="#F79B15" transform="translate(463.1875,329.125)"/>
<path d="M0 0 C4.9710149 2.53240382 8.49430567 5.98861134 11 11 C11.39645992 16.84778387 10.9269918 20.75160091 8 26 C3.24684545 30.39666795 -0.22065739 32.49274053 -6.65625 32.3046875 C-11.36702446 31.69228682 -14.46965153 29.78605226 -17.54296875 26.19921875 C-20.60378884 21.78375 -21.79445124 18.46185226 -21 13 C-19.17942998 7.13371883 -16.87114644 4.45039539 -12 1 C-7.92952653 -0.35682449 -4.25608283 -0.52472254 0 0 Z " fill="#D31919" transform="translate(437,216)"/>
<path d="M0 0 C10.91014461 0.57421814 21.33521653 2.72305291 32 5 C31.34 5.33 30.68 5.66 30 6 C30.04125 7.11375 30.0825 8.2275 30.125 9.375 C30 13 30 13 28 15 C21.4952251 15.63547326 15.37370269 13.94950031 9.0625 12.5 C7.99708984 12.26152344 6.93167969 12.02304688 5.83398438 11.77734375 C3.22116452 11.1915097 0.61036985 10.59665597 -2 10 C-1.34 6.7 -0.68 3.4 0 0 Z " fill="#024F22" transform="translate(390,170)"/>
<path d="M0 0 C0.66 3.3 1.32 6.6 2 10 C-1.8728998 10.84329993 -5.74861953 11.67285999 -9.625 12.5 C-10.71941406 12.73847656 -11.81382813 12.97695312 -12.94140625 13.22265625 C-14.00488281 13.44824219 -15.06835938 13.67382812 -16.1640625 13.90625 C-17.13811035 14.11572266 -18.1121582 14.32519531 -19.11572266 14.54101562 C-22.15975448 15.02542225 -24.9238888 15.21548559 -28 15 C-28.66 14.34 -29.32 13.68 -30 13 C-30 11 -30 9 -30 7 C-30.66 6.34 -31.32 5.68 -32 5 C-27.60554278 4.1592979 -23.20923004 3.3287265 -18.8125 2.5 C-17.56662109 2.26152344 -16.32074219 2.02304688 -15.03710938 1.77734375 C-13.83505859 1.55175781 -12.63300781 1.32617188 -11.39453125 1.09375 C-9.73707886 0.77954102 -9.73707886 0.77954102 -8.04614258 0.45898438 C-5 0 -5 0 0 0 Z " fill="#036A2D" transform="translate(122,170)"/>
</svg>
